<svg width="13" height="13" viewBox="0 0 13 13" fill="none" xmlns="http://www.w3.org/2000/svg">
<g clip-path="url(#clip0_2_749)">
<path d="M2.25885 4.22656L4.23883 4.22656V2.24658L2.25885 2.24658L2.25885 4.22656ZM5.22882 10.1665L7.2088 10.1665V8.18652L5.22882 8.18652V10.1665ZM2.25885 10.1665H4.23883V8.18652H2.25885L2.25885 10.1665ZM2.25885 7.19653L4.23883 7.19653V5.21655L2.25885 5.21655L2.25885 7.19653ZM5.22882 7.19653L7.2088 7.19653V5.21655L5.22882 5.21655L5.22882 7.19653ZM8.19879 2.24658V4.22656L10.1788 4.22656V2.24658L8.19879 2.24658ZM5.22882 4.22656L7.2088 4.22656L7.2088 2.24658L5.22882 2.24658V4.22656ZM8.19879 7.19653L10.1788 7.19653V5.21655L8.19879 5.21655V7.19653ZM8.19879 10.1665L10.1788 10.1665V8.18652L8.19879 8.18652V10.1665Z" fill="#EBD96B"/>
</g>
<defs>
<clipPath id="clip0_2_749">
<rect width="11.8799" height="11.8799" fill="white" transform="translate(0.279236 0.266846)"/>
</clipPath>
</defs>
</svg>
