<svg width="21" height="22" viewBox="0 0 21 22" fill="none" xmlns="http://www.w3.org/2000/svg">
<g clip-path="url(#clip0_2_350)">
<path d="M3.50037 7.21177H6.9979V3.71423H3.50037V7.21177ZM8.74667 17.7044H12.2442V14.2068H8.74667V17.7044ZM3.50037 17.7044H6.9979V14.2068H3.50037V17.7044ZM3.50037 12.4581H6.9979V8.96054H3.50037V12.4581ZM8.74667 12.4581H12.2442V8.96054H8.74667V12.4581ZM13.993 3.71423V7.21177H17.4905V3.71423H13.993ZM8.74667 7.21177H12.2442V3.71423H8.74667V7.21177ZM13.993 12.4581H17.4905V8.96054H13.993V12.4581ZM13.993 17.7044H17.4905V14.2068H13.993V17.7044Z" fill="#EBD96B"/>
</g>
<defs>
<clipPath id="clip0_2_350">
<rect width="20.9852" height="20.9852" fill="white" transform="translate(0.00341797 0.216797)"/>
</clipPath>
</defs>
</svg>
