<svg width="7" height="7" viewBox="0 0 7 7" fill="none" xmlns="http://www.w3.org/2000/svg">
<g clip-path="url(#clip0_2_541)">
<path d="M1.59033 2.27087H2.57555V1.28564H1.59033V2.27087ZM3.06816 5.22653H4.05339V4.24131H3.06816V5.22653ZM1.59033 5.22653H2.57555V4.24131H1.59033V5.22653ZM1.59033 3.7487H2.57555V2.76348H1.59033V3.7487ZM3.06816 3.7487H4.05339V2.76348H3.06816V3.7487ZM4.546 1.28564V2.27087H5.53122V1.28564H4.546ZM3.06816 2.27087H4.05339V1.28564H3.06816V2.27087ZM4.546 3.7487H5.53122V2.76348H4.546V3.7487ZM4.546 5.22653H5.53122V4.24131H4.546V5.22653Z" fill="#EBD96B"/>
</g>
<defs>
<clipPath id="clip0_2_541">
<rect width="5.91133" height="5.91133" fill="white" transform="translate(0.605469 0.300537)"/>
</clipPath>
</defs>
</svg>
