<svg width="17" height="17" viewBox="0 0 17 17" fill="none" xmlns="http://www.w3.org/2000/svg">
<g clip-path="url(#clip0_2_583)">
<path d="M16.4523 2.27186C11.5277 0.521192 6.17495 0.376595 1.16302 1.85885C0.963802 1.90652 0.776232 1.99385 0.61151 2.11562C0.446788 2.23739 0.308292 2.3911 0.204291 2.56758C0.10029 2.74406 0.0329167 2.93969 0.00619382 3.14278C-0.020529 3.34587 -0.00605357 3.55227 0.048756 3.74965C0.323068 4.8505 0.723194 6.11533 1.20376 7.26208C1.21201 7.2889 1.2249 7.276 1.2249 7.24919C1.15529 6.7114 1.56882 6.03232 2.3799 5.78533C6.27775 4.54483 10.4726 4.60036 14.3362 5.94363C14.4787 5.99237 14.6295 6.01209 14.7798 6.00161C14.93 5.99114 15.0767 5.95068 15.211 5.88263C15.3454 5.81459 15.4648 5.72032 15.5621 5.6054C15.6595 5.49048 15.7329 5.35723 15.7779 5.2135C16.2585 3.66663 16.4523 2.6163 16.5003 2.35333C16.5085 2.30435 16.4652 2.28579 16.4523 2.27238V2.27186ZM4.57079 5.67499C3.9804 5.79822 3.16416 5.9921 2.5516 6.19525C1.32699 6.61755 1.38371 8.10771 2.03597 8.58311C2.08393 8.30674 2.3799 7.93085 2.7099 7.804C3.93244 7.32344 5.24522 7.03624 6.57244 6.91764C5.89801 6.64385 5.24007 6.25146 4.57955 5.67447L4.57079 5.67499ZM14.3197 8.65839C12.5603 7.83175 10.6531 7.36618 8.71074 7.28922C6.76837 7.21226 4.83028 7.52546 3.01102 8.21032C2.42785 8.43049 2.06279 9.13999 2.42785 9.8134C3.0656 10.9664 3.78935 12.0697 4.59296 13.1139C4.47746 12.7138 4.68165 11.9728 5.4654 11.7305C7.63308 11.0643 9.90751 11.3469 11.4193 11.9589C11.8463 12.1306 12.4506 12.0265 12.7893 11.5191C13.3671 10.6291 13.8925 9.70633 14.363 8.75533C14.3842 8.71254 14.363 8.68057 14.3197 8.65839ZM10.8073 14.0003C10.1732 13.6801 9.59324 13.2623 9.08869 12.7623C8.85511 12.5287 8.51119 12.193 8.14871 11.7929C7.32113 11.7929 6.51779 11.8759 5.65876 12.1502C4.86108 12.3998 4.78632 13.3212 5.1354 13.8018C5.72579 14.5376 6.13983 14.9346 6.80035 15.6173C7.15039 15.9606 7.62046 16.154 8.11077 16.1564C8.60109 16.1588 9.07303 15.97 9.42643 15.6302C9.94205 15.1145 10.2592 14.7706 10.8418 14.1101C10.8764 14.075 10.863 14.0137 10.8068 14.0003H10.8073Z" fill="black"/>
</g>
<defs>
<clipPath id="clip0_2_583">
<rect width="16.5" height="16.5" fill="white" transform="translate(0 0.25)"/>
</clipPath>
</defs>
</svg>
