<svg width="182" height="180" viewBox="0 0 182 180" fill="none" xmlns="http://www.w3.org/2000/svg">
<path d="M181.262 85.2526C181.262 132.059 142.834 170.01 95.4223 170.01C48.0102 170.01 9.58236 132.059 9.58236 85.2526C9.58236 38.4462 48.0102 0.494957 95.4223 0.494957C142.834 0.494957 181.262 38.4462 181.262 85.2526Z" fill="white" stroke="#EFECEB" stroke-width="0.676437"/>
<path d="M169.708 84.5644C169.708 125.028 136.487 157.836 95.5 157.836C54.5128 157.836 21.2924 125.028 21.2924 84.5644C21.2924 44.1008 54.5128 11.2924 95.5 11.2924C136.487 11.2924 169.708 44.1008 169.708 84.5644Z" fill="white" stroke="#EFECEB" stroke-width="0.584772"/>
<path d="M159.038 83.5C159.038 117.328 131.265 144.756 97 144.756C62.7345 144.756 34.9622 117.328 34.9622 83.5C34.9622 49.6724 62.7345 22.2444 97 22.2444C131.265 22.2444 159.038 49.6724 159.038 83.5Z" fill="white" stroke="#EFECEB" stroke-width="0.488871"/>
<circle cx="168.883" cy="6.92111" r="6.76437" fill="#EBD96B"/>
<ellipse cx="12.2205" cy="7.46223" rx="2.97632" ry="3.2469" fill="#ECE8E7"/>
<ellipse cx="12.2205" cy="7.46223" rx="2.97632" ry="3.2469" fill="#89807A"/>
<circle cx="4.6447" cy="174.948" r="4.59977" fill="#EBD96B"/>
<circle cx="179.3" cy="151.273" r="2.29989" fill="#89807A"/>
</svg>
