<svg width="22" height="22" viewBox="0 0 22 22" fill="none" xmlns="http://www.w3.org/2000/svg">
<path d="M14.0532 12.3841H13.3625L13.1176 12.148C13.9745 11.1512 14.4904 9.85713 14.4904 8.44937C14.4904 5.31033 11.9459 2.76587 8.80691 2.76587C5.66787 2.76587 3.12341 5.31033 3.12341 8.44937C3.12341 11.5884 5.66787 14.1329 8.80691 14.1329C10.2147 14.1329 11.5088 13.617 12.5056 12.7601L12.7416 13.0049V13.6957L17.1136 18.0588L18.4164 16.756L14.0532 12.3841ZM8.80691 12.3841C6.62969 12.3841 4.87218 10.6266 4.87218 8.44937C4.87218 6.27215 6.62969 4.51464 8.80691 4.51464C10.9841 4.51464 12.7416 6.27215 12.7416 8.44937C12.7416 10.6266 10.9841 12.3841 8.80691 12.3841Z" fill="#6E6F72"/>
</svg>
