<svg width="13" height="13" viewBox="0 0 13 13" fill="none" xmlns="http://www.w3.org/2000/svg">
<path d="M7.93122 7.59632L7.54017 7.59632L7.40157 7.46267C7.88667 6.89837 8.17871 6.16578 8.17871 5.36884C8.17871 3.5918 6.73828 2.15137 4.96124 2.15137C3.18421 2.15137 1.74377 3.5918 1.74377 5.36884C1.74377 7.14587 3.18421 8.58631 4.96124 8.58631C5.75819 8.58631 6.49078 8.29426 7.05507 7.80916L7.18872 7.94776V8.33881L9.6637 10.8088L10.4012 10.0713L7.93122 7.59632ZM4.96124 7.59632C3.72871 7.59632 2.73376 6.60137 2.73376 5.36884C2.73376 4.1363 3.72871 3.14136 4.96124 3.14136C6.19378 3.14136 7.18872 4.1363 7.18872 5.36884C7.18872 6.60137 6.19378 7.59632 4.96124 7.59632Z" fill="#6E6F72"/>
</svg>
