<svg width="7" height="7" viewBox="0 0 7 7" fill="none" xmlns="http://www.w3.org/2000/svg">
<path d="M4.40792 4.30555H4.21334L4.14437 4.23905C4.38575 3.95826 4.53107 3.59373 4.53107 3.19718C4.53107 2.31294 3.81432 1.59619 2.93009 1.59619C2.04585 1.59619 1.3291 2.31294 1.3291 3.19718C1.3291 4.08141 2.04585 4.79816 2.93009 4.79816C3.32664 4.79816 3.69117 4.65284 3.97196 4.41146L4.03846 4.48043V4.67501L5.26999 5.90407L5.63698 5.53708L4.40792 4.30555ZM2.93009 4.30555C2.31679 4.30555 1.82171 3.81048 1.82171 3.19718C1.82171 2.58388 2.31679 2.0888 2.93009 2.0888C3.54339 2.0888 4.03846 2.58388 4.03846 3.19718C4.03846 3.81048 3.54339 4.30555 2.93009 4.30555Z" fill="#6E6F72"/>
</svg>
