<svg width="7" height="8" viewBox="0 0 7 8" fill="none" xmlns="http://www.w3.org/2000/svg">
<path d="M2.19673 6.06895C1.83097 6.06895 1.53503 6.35713 1.53503 6.70935C1.53503 7.06156 1.83097 7.34974 2.19673 7.34974C2.5625 7.34974 2.86176 7.06156 2.86176 6.70935C2.86176 6.35713 2.5625 6.06895 2.19673 6.06895ZM0.20166 0.945801V1.58619H0.866685L2.06373 4.01649L1.61484 4.80097C1.56164 4.89063 1.53171 4.99629 1.53171 5.10836C1.53171 5.46058 1.83097 5.74876 2.19673 5.74876H6.18688V5.10836H2.33639C2.28984 5.10836 2.25326 5.07314 2.25326 5.02831L2.26324 4.98989L2.5625 4.46797H5.03971C5.2891 4.46797 5.50856 4.33669 5.62161 4.13817L6.812 2.06009C6.83861 2.01526 6.85191 1.96083 6.85191 1.90639C6.85191 1.73028 6.70228 1.58619 6.51939 1.58619H1.60154L1.28898 0.945801H0.20166ZM5.52186 6.06895C5.15609 6.06895 4.86016 6.35713 4.86016 6.70935C4.86016 7.06156 5.15609 7.34974 5.52186 7.34974C5.88762 7.34974 6.18688 7.06156 6.18688 6.70935C6.18688 6.35713 5.88762 6.06895 5.52186 6.06895Z" fill="#959292"/>
</svg>
