<svg width="15" height="14" viewBox="0 0 15 14" fill="none" xmlns="http://www.w3.org/2000/svg">
<path d="M4.90332 10.5347C4.16825 10.5347 3.57352 11.1138 3.57352 11.8217C3.57352 12.5295 4.16825 13.1086 4.90332 13.1086C5.63839 13.1086 6.23981 12.5295 6.23981 11.8217C6.23981 11.1138 5.63839 10.5347 4.90332 10.5347ZM0.89386 0.23877L0.89386 1.52576L2.23035 1.52576L4.63602 6.40988L3.7339 7.98644C3.62698 8.16661 3.56683 8.37897 3.56683 8.60419C3.56683 9.31203 4.16825 9.89118 4.90332 9.89118L12.9222 9.89118V8.60419L5.18398 8.60419C5.09043 8.60419 5.01692 8.53341 5.01692 8.44332L5.03697 8.3661L5.63839 7.3172L10.6168 7.3172C11.118 7.3172 11.559 7.05337 11.7862 6.6544L14.1785 2.47813C14.232 2.38804 14.2587 2.27865 14.2587 2.16925C14.2587 1.81533 13.958 1.52576 13.5905 1.52576L3.70717 1.52576L3.07902 0.23877L0.89386 0.23877ZM11.5858 10.5347C10.8507 10.5347 10.256 11.1138 10.256 11.8217C10.256 12.5295 10.8507 13.1086 11.5858 13.1086C12.3208 13.1086 12.9222 12.5295 12.9222 11.8217C12.9222 11.1138 12.3208 10.5347 11.5858 10.5347Z" fill="#959292"/>
</svg>
