<svg width="25" height="24" viewBox="0 0 25 24" fill="none" xmlns="http://www.w3.org/2000/svg">
<path d="M7.85229 18.8448C6.55383 18.8448 5.50325 19.8678 5.50325 21.1182C5.50325 22.3686 6.55383 23.3916 7.85229 23.3916C9.15075 23.3916 10.2131 22.3686 10.2131 21.1182C10.2131 19.8678 9.15075 18.8448 7.85229 18.8448ZM0.769775 0.657593V2.93099H3.13061L7.38012 11.5585L5.78655 14.3435C5.59769 14.6617 5.49145 15.0368 5.49145 15.4347C5.49145 16.6851 6.55383 17.7081 7.85229 17.7081H22.0173V15.4347H8.34806C8.18281 15.4347 8.05296 15.3097 8.05296 15.1505L8.08837 15.0141L9.15075 13.1613H17.9449C18.8302 13.1613 19.6093 12.6952 20.0106 11.9905L24.2365 4.61331C24.3309 4.45417 24.3782 4.26093 24.3782 4.06769C24.3782 3.44251 23.847 2.93099 23.1977 2.93099H5.73934L4.62974 0.657593H0.769775ZM19.6565 18.8448C18.358 18.8448 17.3074 19.8678 17.3074 21.1182C17.3074 22.3686 18.358 23.3916 19.6565 23.3916C20.9549 23.3916 22.0173 22.3686 22.0173 21.1182C22.0173 19.8678 20.9549 18.8448 19.6565 18.8448Z" fill="#959292"/>
</svg>
