<svg width="6" height="7" viewBox="0 0 6 7" fill="none" xmlns="http://www.w3.org/2000/svg">
<path d="M3.01739 1.72998C2.17713 1.72998 1.49937 2.40774 1.49937 3.248C1.49937 4.08826 2.17713 4.76602 3.01739 4.76602C3.85765 4.76602 4.53541 4.08826 4.53541 3.248C4.53541 2.40774 3.85765 1.72998 3.01739 1.72998ZM3.01739 4.23491C2.47439 4.23491 2.03048 3.79232 2.03048 3.248C2.03048 2.70368 2.47307 2.26109 3.01739 2.26109C3.56171 2.26109 4.0043 2.70368 4.0043 3.248C4.0043 3.79232 3.56039 4.23491 3.01739 4.23491ZM4.95158 1.66789C4.95158 1.86474 4.79304 2.02196 4.59751 2.02196C4.40065 2.02196 4.24343 1.86342 4.24343 1.66789C4.24343 1.47235 4.40197 1.31381 4.59751 1.31381C4.79304 1.31381 4.95158 1.47235 4.95158 1.66789ZM5.95699 2.02724C5.93453 1.55295 5.82619 1.13281 5.47872 0.786668C5.13258 0.440523 4.71245 0.332187 4.23815 0.308406C3.74932 0.280662 2.28414 0.280662 1.79531 0.308406C1.32233 0.330866 0.902202 0.439202 0.554735 0.785347C0.207268 1.13149 0.100253 1.55162 0.0764724 2.02592C0.0487279 2.51475 0.0487279 3.97993 0.0764724 4.46876C0.0989323 4.94306 0.207268 5.36319 0.554735 5.70934C0.902202 6.05548 1.32101 6.16382 1.79531 6.1876C2.28414 6.21534 3.74932 6.21534 4.23815 6.1876C4.71245 6.16514 5.13258 6.0568 5.47872 5.70934C5.82487 5.36319 5.93321 4.94306 5.95699 4.46876C5.98473 3.97993 5.98473 2.51608 5.95699 2.02724ZM5.32547 4.99326C5.22242 5.25221 5.02292 5.45171 4.76265 5.55608C4.37291 5.71066 3.44809 5.67499 3.01739 5.67499C2.58669 5.67499 1.66055 5.70934 1.27213 5.55608C1.01318 5.45303 0.813684 5.25353 0.709311 4.99326C0.554735 4.60352 0.590406 3.6787 0.590406 3.248C0.590406 2.8173 0.556056 1.89116 0.709311 1.50274C0.812362 1.24379 1.01186 1.0443 1.27213 0.939924C1.66187 0.785347 2.58669 0.821019 3.01739 0.821019C3.44809 0.821019 4.37423 0.786668 4.76265 0.939924C5.0216 1.04297 5.2211 1.24247 5.32547 1.50274C5.48004 1.89249 5.44437 2.8173 5.44437 3.248C5.44437 3.6787 5.48004 4.60484 5.32547 4.99326Z" fill="black"/>
</svg>
