<svg width="7" height="7" viewBox="0 0 7 7" fill="none" xmlns="http://www.w3.org/2000/svg">
<path d="M6.25264 1.92728C6.25693 1.98737 6.25693 2.04747 6.25693 2.10756C6.25693 3.94028 4.862 6.05201 2.31248 6.05201C1.52702 6.05201 0.797368 5.82451 0.183594 5.42966C0.295193 5.44253 0.402485 5.44682 0.518377 5.44682C1.16648 5.44682 1.76309 5.22793 2.23951 4.85451C1.63003 4.84163 1.11927 4.44247 0.943291 3.89307C1.02914 3.90594 1.11498 3.91453 1.20512 3.91453C1.32959 3.91453 1.45407 3.89735 1.56995 3.86732C0.934717 3.73855 0.458278 3.18058 0.458278 2.50672V2.48956C0.642831 2.59257 0.857455 2.65695 1.08492 2.66552C0.711506 2.41658 0.466865 1.99166 0.466865 1.51094C0.466865 1.25342 0.535526 1.01736 0.655713 0.811334C1.33816 1.65259 2.36398 2.20197 3.51426 2.26207C3.4928 2.15906 3.47992 2.05176 3.47992 1.94446C3.47992 1.18045 4.09799 0.558105 4.86627 0.558105C5.26544 0.558105 5.62597 0.725497 5.87921 0.995901C6.19252 0.935814 6.49297 0.819921 6.75909 0.661117C6.65607 0.983032 6.43718 1.25344 6.14961 1.42511C6.4286 1.39508 6.69901 1.3178 6.94794 1.21051C6.75912 1.48519 6.52304 1.72984 6.25264 1.92728Z" fill="black"/>
</svg>
