<svg width="25" height="24" viewBox="0 0 25 24" fill="none" xmlns="http://www.w3.org/2000/svg">
<path d="M24.7224 2.39473C17.3255 -0.234864 9.28533 -0.452055 1.75718 1.77436C1.45794 1.84597 1.1762 1.97714 0.928784 2.16004C0.681364 2.34294 0.473337 2.57383 0.317122 2.83891C0.160908 3.10399 0.0597103 3.39783 0.0195713 3.70288C-0.0205677 4.00794 0.00117516 4.31796 0.0835016 4.61442C0.495532 6.26796 1.09654 8.16779 1.81837 9.89027C1.83076 9.93054 1.85012 9.91118 1.85012 9.8709C1.74556 9.06311 2.36671 8.0431 3.58498 7.67212C9.43973 5.80882 15.7405 5.89224 21.5439 7.90989C21.758 7.9831 21.9845 8.01272 22.2102 7.99698C22.4359 7.98125 22.6561 7.92048 22.858 7.81827C23.0598 7.71606 23.2391 7.57447 23.3853 7.40185C23.5316 7.22924 23.6418 7.02909 23.7094 6.81321C24.4312 4.48973 24.7224 2.91209 24.7945 2.5171C24.8069 2.44352 24.7418 2.41564 24.7224 2.3955V2.39473ZM6.8758 7.50638C5.98901 7.69148 4.76299 7.98269 3.84289 8.28784C2.00347 8.92215 2.08866 11.1604 3.0684 11.8745C3.14042 11.4594 3.58498 10.8948 4.08066 10.7043C5.91698 9.98243 7.88884 9.55104 9.88238 9.3729C8.86935 8.96165 7.88109 8.37226 6.88897 7.5056L6.8758 7.50638ZM21.5191 11.9876C18.8765 10.7459 16.0117 10.0466 13.0942 9.93103C10.1767 9.81543 7.26557 10.2859 4.53296 11.3146C3.65701 11.6453 3.10867 12.711 3.65701 13.7225C4.61493 15.4543 5.70205 17.1115 6.9091 18.68C6.73562 18.079 7.04232 16.966 8.21955 16.602C11.4755 15.6014 14.8918 16.0258 17.1626 16.9451C17.8039 17.203 18.7116 17.0466 19.2204 16.2845C20.0882 14.9477 20.8775 13.5616 21.5842 12.1332C21.6159 12.0689 21.5842 12.0209 21.5191 11.9876ZM16.2433 20.0113C15.2908 19.5304 14.4198 18.9029 13.6619 18.1518C13.3111 17.8009 12.7945 17.2967 12.25 16.6957C11.0069 16.6957 9.80029 16.8204 8.50998 17.2325C7.31184 17.6073 7.19954 18.9913 7.72387 19.7132C8.61067 20.8184 9.23258 21.4147 10.2247 22.4401C10.7505 22.9559 11.4566 23.2464 12.193 23.25C12.9295 23.2536 13.6384 22.97 14.1692 22.4595C14.9437 21.685 15.42 21.1684 16.2952 20.1763C16.3471 20.1236 16.3269 20.0315 16.2425 20.0113H16.2433Z" fill="black"/>
</svg>
