<svg width="22" height="23" viewBox="0 0 22 23" fill="none" xmlns="http://www.w3.org/2000/svg">
<path d="M10.946 5.72681C7.84058 5.72681 5.33569 8.23169 5.33569 11.3372C5.33569 14.4426 7.84058 16.9475 10.946 16.9475C14.0515 16.9475 16.5564 14.4426 16.5564 11.3372C16.5564 8.23169 14.0515 5.72681 10.946 5.72681ZM10.946 14.9846C8.93921 14.9846 7.29858 13.3489 7.29858 11.3372C7.29858 9.32544 8.93433 7.6897 10.946 7.6897C12.9578 7.6897 14.5935 9.32544 14.5935 11.3372C14.5935 13.3489 12.9529 14.9846 10.946 14.9846ZM18.0945 5.49731C18.0945 6.22485 17.5085 6.80591 16.7859 6.80591C16.0584 6.80591 15.4773 6.21997 15.4773 5.49731C15.4773 4.77466 16.0632 4.18872 16.7859 4.18872C17.5085 4.18872 18.0945 4.77466 18.0945 5.49731ZM21.8103 6.82544C21.7273 5.07251 21.3269 3.51978 20.0427 2.24048C18.7634 0.961182 17.2107 0.560791 15.4578 0.4729C13.6511 0.370361 8.23608 0.370361 6.42944 0.4729C4.6814 0.555908 3.12866 0.956299 1.84448 2.2356C0.560303 3.51489 0.164795 5.06763 0.0769043 6.82056C-0.0256348 8.6272 -0.0256348 14.0422 0.0769043 15.8489C0.159912 17.6018 0.560303 19.1545 1.84448 20.4338C3.12866 21.7131 4.67651 22.1135 6.42944 22.2014C8.23608 22.304 13.6511 22.304 15.4578 22.2014C17.2107 22.1184 18.7634 21.718 20.0427 20.4338C21.322 19.1545 21.7224 17.6018 21.8103 15.8489C21.9128 14.0422 21.9128 8.63208 21.8103 6.82544ZM19.4763 17.7874C19.0955 18.7444 18.3582 19.4817 17.3962 19.8674C15.9558 20.4387 12.5378 20.3069 10.946 20.3069C9.35425 20.3069 5.9314 20.4338 4.49585 19.8674C3.53882 19.4866 2.80151 18.7493 2.41577 17.7874C1.84448 16.3469 1.97632 12.929 1.97632 11.3372C1.97632 9.74536 1.84937 6.32251 2.41577 4.88696C2.79663 3.92993 3.53394 3.19263 4.49585 2.80688C5.93628 2.2356 9.35425 2.36743 10.946 2.36743C12.5378 2.36743 15.9607 2.24048 17.3962 2.80688C18.3533 3.18774 19.0906 3.92505 19.4763 4.88696C20.0476 6.32739 19.9158 9.74536 19.9158 11.3372C19.9158 12.929 20.0476 16.3518 19.4763 17.7874Z" fill="black"/>
</svg>
